<?xml version="1.0" encoding="UTF-8"?>
<svg version="1.1" xmlns="http://www.w3.org/2000/svg" width="278" height="237">
<path d="M0 0 C91.74 0 183.48 0 278 0 C278 78.21 278 156.42 278 237 C186.26 237 94.52 237 0 237 C0 158.79 0 80.58 0 0 Z " fill="#EACF64" transform="translate(0,0)"/>
<path d="M0 0 C91.74 0 183.48 0 278 0 C278 78.21 278 156.42 278 237 C186.26 237 94.52 237 0 237 C0 158.79 0 80.58 0 0 Z M56 44 C54.55367187 45.30710937 54.55367187 45.30710937 53.078125 46.640625 C36.05841661 62.54793414 23.65790931 85.62346494 22.09375 109.1640625 C22.0628125 110.09992188 22.031875 111.03578125 22 112 C21.97421875 112.63776367 21.9484375 113.27552734 21.921875 113.93261719 C20.89229744 142.31034859 30.66854908 166.88606034 49.6484375 187.9375 C65.35608284 204.7086139 86.8943828 216.27666195 110 218 C115.32931633 218.15543615 120.65721462 218.16534843 125.98828125 218.16796875 C127.5385084 218.17118967 129.08873525 218.17455435 130.63896179 218.17805481 C133.8773977 218.18401563 137.11580705 218.18589785 140.35424805 218.18530273 C144.47256383 218.18520126 148.59070663 218.19885176 152.70898151 218.21607494 C155.90832783 218.22727682 159.10763339 218.22921945 162.3069973 218.22869301 C163.82380964 218.22986089 165.34062347 218.23421435 166.85741615 218.24202538 C179.10292735 218.2991893 190.51960265 217.49829996 201.9375 212.8125 C202.70328369 212.50425293 203.46906738 212.19600586 204.25805664 211.87841797 C215.76813521 207.14541399 225.72357258 201.39874506 235 193 C235.91652344 192.17757812 236.83304688 191.35515625 237.77734375 190.5078125 C257.26042609 172.0904247 267.51153222 146.33968153 268.28515625 119.67382812 C268.39271871 111.12261267 267.2495298 103.2774906 265 95 C264.73316406 93.94554688 264.46632813 92.89109375 264.19140625 91.8046875 C257.57403469 67.86450773 241.80689518 46.62312211 220.41015625 33.9296875 C202.17061527 23.60857267 185.644318 19.66899764 164.75390625 19.734375 C163.21036213 19.73302321 161.66681844 19.73107843 160.12327576 19.72857666 C156.90693053 19.72564866 153.69069731 19.72984678 150.47436523 19.73925781 C146.38872365 19.75064126 142.30334528 19.74408501 138.21771336 19.73211288 C135.03547753 19.72482269 131.85330221 19.72721489 128.67106438 19.73236847 C127.16624863 19.73368577 125.66142705 19.7321261 124.15661812 19.72740936 C98.33096436 19.66420175 75.36795868 26.38140533 56 44 Z " fill="#FEFEFE" transform="translate(0,0)"/>
<path d="M0 0 C1.39456452 0.00667256 2.78911118 0.01863093 4.18359375 0.03515625 C4.89451172 0.03966797 5.60542969 0.04417969 6.33789062 0.04882812 C8.09899388 0.06064761 9.86005411 0.07858362 11.62109375 0.09765625 C11.99427987 6.67506158 10.5873999 12.64812579 9.12109375 19.03515625 C8.29609375 22.68578125 7.47109375 26.33640625 6.62109375 30.09765625 C18.50109375 30.09765625 30.38109375 30.09765625 42.62109375 30.09765625 C42.95109375 27.12765625 43.28109375 24.15765625 43.62109375 21.09765625 C43.90640724 19.35340781 44.21389001 17.61239572 44.55859375 15.87890625 C44.73132813 15.01007813 44.9040625 14.14125 45.08203125 13.24609375 C45.25992188 12.37210938 45.4378125 11.498125 45.62109375 10.59765625 C45.88792969 9.24027344 45.88792969 9.24027344 46.16015625 7.85546875 C46.33289063 6.99695313 46.505625 6.1384375 46.68359375 5.25390625 C46.91755859 4.09084961 46.91755859 4.09084961 47.15625 2.90429688 C47.62109375 1.09765625 47.62109375 1.09765625 48.62109375 0.09765625 C51.15158777 0.02452058 53.65414212 0.00518098 56.18359375 0.03515625 C57.2499707 0.04192383 57.2499707 0.04192383 58.33789062 0.04882812 C60.09899388 0.06064761 61.86005411 0.07858362 63.62109375 0.09765625 C63.1175778 8.1921787 61.72583532 15.83740124 59.87109375 23.72265625 C57.77568199 32.86592673 55.79558646 42.01649414 53.99609375 51.22265625 C52.09579703 60.91150376 49.95472936 70.50382096 47.62109375 80.09765625 C42.34109375 80.09765625 37.06109375 80.09765625 31.62109375 80.09765625 C32.22863168 75.84489073 32.83739662 71.79771976 33.7421875 67.62890625 C33.95552734 66.64535156 34.16886719 65.66179687 34.38867188 64.6484375 C34.60974609 63.64167969 34.83082031 62.63492188 35.05859375 61.59765625 C35.27580078 60.59089844 35.49300781 59.58414063 35.71679688 58.546875 C36.85792905 53.31754257 38.14650542 48.25871539 39.62109375 43.09765625 C27.74109375 43.42765625 15.86109375 43.75765625 3.62109375 44.09765625 C1.73358535 53.3256848 1.73358535 53.3256848 -0.14794922 62.55493164 C-0.38658691 63.71500732 -0.62522461 64.87508301 -0.87109375 66.0703125 C-1.1119873 67.24859619 -1.35288086 68.42687988 -1.60107422 69.64086914 C-2.39279535 73.15938124 -3.38812803 76.62993247 -4.37890625 80.09765625 C-9.65890625 80.09765625 -14.93890625 80.09765625 -20.37890625 80.09765625 C-18.58435046 70.32729697 -16.7057814 60.57488188 -14.77203369 50.83111572 C-14.38760299 48.8915342 -14.0060242 46.95138811 -13.62451172 45.01123047 C-12.28156578 38.2718757 -10.78278785 31.61116992 -9.07519531 24.95556641 C-7.94320779 20.30933713 -7.0995784 15.6154761 -6.25390625 10.91015625 C-5.92154166 9.06185395 -5.58579671 7.21415516 -5.24609375 5.3671875 C-5.10284668 4.56901611 -4.95959961 3.77084473 -4.81201172 2.94848633 C-4.04606353 -0.32471164 -3.57881904 0.10343408 0 0 Z " fill="#1C73E6" transform="translate(157.37890625,81.90234375)"/>
<path d="M0 0 C4.95 0 9.9 0 15 0 C14.45421526 9.92588181 12.40338469 19.42671898 10.29907227 29.11499023 C9.69009031 31.92554529 9.09536925 34.73885676 8.50195312 37.55273438 C2.38546853 66.20422766 2.38546853 66.20422766 -7.25 76.375 C-16.08887409 81.59797105 -25.99568321 82.07442511 -36 81 C-42.61630487 79.03276323 -47.2160394 75.73697252 -51 70 C-51.33 68.68 -51.66 67.36 -52 66 C-48.7 63.03 -45.4 60.06 -42 57 C-37.70888038 59.14555981 -37.26064412 60.068445 -35 64 C-30.51939887 66.98706742 -26.24954596 66.46251506 -21 66 C-16.89406757 64.68959603 -16.18248925 63.33690323 -14.12109375 59.53125 C-10.82832184 51.89137788 -9.60653879 43.55726711 -8 35.4375 C-7.3384197 32.1434891 -6.67079333 28.8507401 -6 25.55859375 C-5.83790039 24.75948578 -5.67580078 23.96037781 -5.50878906 23.13705444 C-3.91005323 15.35914524 -1.98302153 7.68863483 0 0 Z " fill="#FEFEFC" transform="translate(118,82)"/>
<path d="M0 0 C29.37 0 58.74 0 89 0 C89 3.63 89 7.26 89 11 C59.63 11 30.26 11 0 11 C0 7.37 0 3.74 0 0 Z " fill="#2376E1" transform="translate(133,168)"/>
<path d="M0 0 C21.45 0 42.9 0 65 0 C65 3.63 65 7.26 65 11 C43.55 11 22.1 11 0 11 C0 7.37 0 3.74 0 0 Z " fill="#FEFCF7" transform="translate(68,168)"/>
</svg>
